<svg height="512" viewBox="0 0 128 128" width="512" xmlns="http://www.w3.org/2000/svg"><g><path d="m98.172 25.815s-1.384 4.778-9.22 6.214c-7.231 1.325-15.191 6.255-15.537 13.957-.449 9.992 11.553 17.253 20.747 9.529 10.401-8.738 4.01-29.7 4.01-29.7z" fill="#8dd95c"/><path d="m29.828 25.815s1.384 4.778 9.22 6.214c7.231 1.325 15.191 6.255 15.537 13.957.449 9.992-11.553 17.253-20.747 9.529-10.401-8.738-4.01-29.7-4.01-29.7z" fill="#c4e83b"/><path d="m94.5 42.136a2.425 2.425 0 0 1 -1.336.312 37.74 37.74 0 0 0 4.039-6.527 1.75 1.75 0 1 0 -3.156-1.514 37.9 37.9 0 0 1 -7.963 10.736c-.494.477-.984.929-1.471 1.367a12.219 12.219 0 0 1 -.637-4.051 1.75 1.75 0 0 0 -3.483-.35 18.092 18.092 0 0 0 1.218 6.839 91.413 91.413 0 0 1 -7.567 5.243c-4.311 2.758-7.919 5.077-10.146 9-2.227-3.924-5.835-6.243-10.146-9a91.245 91.245 0 0 1 -7.567-5.243 18.092 18.092 0 0 0 1.218-6.839 1.75 1.75 0 0 0 -3.483.35 12.149 12.149 0 0 1 -.634 4.054c-.488-.439-.978-.891-1.473-1.369a38.555 38.555 0 0 1 -7.579-9.962 1.749 1.749 0 1 0 -3.111 1.6 38.165 38.165 0 0 0 3.6 5.664 2.407 2.407 0 0 1 -1.328-.311 1.75 1.75 0 1 0 -1.967 2.9 5.859 5.859 0 0 0 3.329.916 10.451 10.451 0 0 0 2.612-.359c.643.7 1.308 1.392 2.01 2.071a73.576 73.576 0 0 0 12.487 9.48c5.273 3.373 8.781 5.618 10.2 10.742v17.365a1.75 1.75 0 0 0 3.5 0v-16.95a1.8 1.8 0 0 0 .095-.209c1.384-5.276 4.917-7.534 10.262-10.954a73.578 73.578 0 0 0 12.488-9.481c.7-.679 1.365-1.371 2.007-2.07a10.515 10.515 0 0 0 2.614.359 5.859 5.859 0 0 0 3.329-.916 1.75 1.75 0 1 0 -1.967-2.9z" fill="#fda792"/><path d="m82.279 90.8a11.323 11.323 0 0 0 -5.024 1.18 13.622 13.622 0 0 0 -26.51 0 11.366 11.366 0 0 0 -16.409 10.2h59.328a11.385 11.385 0 0 0 -11.385-11.38z" fill="#fd9126"/><path d="m102.185 103.935h-76.37a1.75 1.75 0 1 1 0-3.5h76.37a1.75 1.75 0 0 1 0 3.5z" fill="#fd652c"/></g></svg>